# xmcd CD database file
#
# Track frame offsets:
#	150
#	21908
#	43898
#	70629
#	78555
#	104142
#	120469
#	141972
#	151012
#	190151
#	214723
#	232892
#	250098
#
# Disc length: 3526 seconds
#
# Revision: 0
# Processed by: cddbd v1.5.2PL0 Copyright (c) Steve Scherf et al.
# Submitted via: CDex 1.70beta2
#
DISCID=ad0dc40d
DTITLE=Rosie Brown - Clocks and Clouds
DYEAR=1900
DGENRE=Jazz
TTITLE0=Late Light
TTITLE1=Ocean
TTITLE2=Burning Orange
TTITLE3=One Horse Tango
TTITLE4=Clouds
TTITLE5=Sunray
TTITLE6=Move my Head
TTITLE7=Rund
TTITLE8=Lucidity
TTITLE9=Late Light
TTITLE10=Bliss
TTITLE11=Bliss(Quantic Mix)
TTITLE12=If you were a Bluebirds
EXTD=
EXTT0=
EXTT1=
EXTT2=
EXTT3=
EXTT4=
EXTT5=
EXTT6=
EXTT7=
EXTT8=
EXTT9=
EXTT10=
EXTT11=
EXTT12=
PLAYORDER=
